<svg version="1.2" xmlns="http://www.w3.org/2000/svg" viewBox="0 0 512 512" width="512" height="512">
	<title>Nowy projekt</title>
	<style>
		.s0 { fill: none;stroke: #000000;stroke-miterlimit:100;stroke-width: 15 } 
		.s1 { fill: #000000 } 
	</style>
	<path id="Kształt 1" class="s0" d="m256 512c-141.6 0-256-114.4-256-256 0-141.6 114.4-256 256-256 141.6 0 256 114.4 256 256 0 141.6-114.4 256-256 256z"/>
	<path id="Kształt 2" class="s1" d=""/>
	<path id="0" class="s1" aria-label="0"  d="m174 255.9c0 61.2 32.8 102.9 81.6 102.9 48.6 0 81.5-41.7 81.5-102.9 0-61.3-32.9-103-81.5-103-48.8 0-81.6 41.7-81.6 103zm39.1 0c0-43.5 16.3-70.3 42.5-70.3 25.9 0 42.3 26.8 42.3 70.3 0 43.4-16.4 70.2-42.3 70.2-26.2 0-42.5-26.8-42.5-70.2z"/>
</svg>