<svg version="1.2" xmlns="http://www.w3.org/2000/svg" viewBox="0 0 512 512" width="512" height="512">
	<title>Nowy projekt</title>
	<style>
		.s0 { fill: none;stroke: #000000;stroke-miterlimit:100;stroke-width: 15 } 
		.s1 { fill: #000000 } 
	</style>
	<path id="Kształt 1" class="s0" d="m256 512c-141.6 0-256-114.4-256-256 0-141.6 114.4-256 256-256 141.6 0 256 114.4 256 256 0 141.6-114.4 256-256 256z"/>
	<path id="Kształt 2" class="s1" d=""/>
	<path id="2" class="s1" aria-label="2"  d="m180.8 357h150.5v-33.1h-82.6c58.1-42.6 79-70.6 79-102.6 0-38.4-30.3-66.5-71.8-66.5-35.8 0-61.7 22-71 58.1l31.3 9.4c4.9-21 19.7-34.3 37.4-34.3 19.4 0 34.1 15.5 34.1 34.4 0 24.9-27.5 54.6-106.9 115.7z"/>
</svg>