<svg version="1.2" xmlns="http://www.w3.org/2000/svg" viewBox="0 0 512 512" width="512" height="512">
	<title>Nowy projekt</title>
	<style>
		.s0 { fill: none;stroke: #000000;stroke-miterlimit:100;stroke-width: 15 } 
		.s1 { fill: #000000 } 
	</style>
	<path id="Kształt 1" class="s0" d="m256 512c-141.6 0-256-114.4-256-256 0-141.6 114.4-256 256-256 141.6 0 256 114.4 256 256 0 141.6-114.4 256-256 256z"/>
	<path id="Kształt 2" class="s1" d=""/>
	<path id="3" class="s1" aria-label="3"  d="m187.6 308.4c5.5 30.7 32.1 50.4 67.5 50.4 41.5 0 69.9-26.4 69.9-62.3 0-21.7-10.9-38.1-27.9-47 13.4-8.7 21.5-23 21.5-40 0-32.4-26.5-56.6-62.3-56.6-30.2 0-53.4 17.7-60.1 45.8l27.7 9.4c3.5-14.8 16.4-25.1 31.7-25.1 16.3 0 29.1 11.8 29.1 27.3 0 15.4-13 29.2-29.1 29.2h-8.8v24.9c2.4-0.8 5.4-1.4 8.6-1.4 18 0 32.4 14.5 32.4 33.7 0 18-12.8 29.9-32.6 29.9-18.7 0-31.8-10.2-35.3-25.7z"/>
</svg>