<svg version="1.2" xmlns="http://www.w3.org/2000/svg" viewBox="0 0 512 512" width="512" height="512">
	<title>Nowy projekt</title>
	<style>
		.s0 { fill: none;stroke: #000000;stroke-miterlimit:100;stroke-width: 15 } 
		.s1 { fill: #000000 } 
	</style>
	<path id="Kształt 1" class="s0" d="m256 512c-141.6 0-256-114.4-256-256 0-141.6 114.4-256 256-256 141.6 0 256 114.4 256 256 0 141.6-114.4 256-256 256z"/>
	<path id="Kształt 2" class="s1" d=""/>
	<path id="5" class="s1" aria-label="5"  d="m184.5 313.7c10.2 27.6 38.3 43.1 70 43.1 41 0 73.1-25.7 73.1-68.8 0-39.7-27.3-65.8-66.2-65.8-8.1 0-15.5 1.6-22.3 4.7l6.1-39.9h69.7v-32.5h-101.3l-16.8 107.5c11.6-8.3 25.5-12.8 40.7-12.8 32.1 0 53.2 15.5 53.2 41.1 0 21-14.2 35.5-37 35.5-19.3 0-34.8-10.5-39.9-26.5z"/>
</svg>