<svg version="1.2" xmlns="http://www.w3.org/2000/svg" viewBox="0 0 512 512" width="512" height="512">
	<title>Nowy projekt</title>
	<style>
		.s0 { fill: none;stroke: #000000;stroke-miterlimit:100;stroke-width: 15 } 
		.s1 { fill: #000000 } 
	</style>
	<path id="Kształt 1" class="s0" d="m256 512c-141.6 0-256-114.4-256-256 0-141.6 114.4-256 256-256 141.6 0 256 114.4 256 256 0 141.6-114.4 256-256 256z"/>
	<path id="Kształt 2" class="s1" d=""/>
	<path id="6" class="s1" aria-label="6"  d="m265.3 356.8c43.1 0 72.5-27.7 72.5-68.6 0-39.9-27.1-68.1-63-68.1-7.3 0-13.6 1.4-18.8 3.9l58.5-69.5h-44.9l-51.7 62.6c-18.9 22.7-29.2 47.2-29.2 69.7 0 38.9 30.8 70 76.6 70zm-38.3-67.2c0-21.3 16.4-37.8 37.2-37.8 20.5 0 36.6 15.9 36.6 37.4 0 21.3-15.8 36.9-37.3 36.9-21.8 0-36.5-16.3-36.5-36.5z"/>
</svg>