<svg version="1.2" xmlns="http://www.w3.org/2000/svg" viewBox="0 0 512 512" width="512" height="512">
	<title>Nowy projekt</title>
	<style>
		.s0 { fill: none;stroke: #000000;stroke-miterlimit:100;stroke-width: 15 } 
		.s1 { fill: #000000 } 
	</style>
	<path id="Kształt 1" class="s0" d="m256 512c-141.6 0-256-114.4-256-256 0-141.6 114.4-256 256-256 141.6 0 256 114.4 256 256 0 141.6-114.4 256-256 256z"/>
	<path id="Kształt 2" class="s1" d=""/>
	<path id="8" class="s1" aria-label="8"  d="m185.3 300.4c0 34 31.1 58.4 70.8 58.4 39.7 0 70.8-24.5 70.8-58.3 0-23.1-14-43.2-35.4-52.1 16.6-8.7 27.3-25.4 27.3-44.1 0-32.5-32.3-51.4-62.7-51.4-34.7 0-62.7 21.9-62.7 51.5 0 18.1 10.2 35.1 27.3 44-21 8.8-35.4 28.8-35.4 52zm70.8-34.5c17.7 0 30.4 12.8 30.4 30.5 0 17.2-12.1 30.3-30.4 30.3-18.1 0-30.5-13-30.5-30.3 0-17.9 13.2-30.5 30.5-30.5zm-27-57.9c0-15.3 11.6-26.8 27-26.8 15.4 0 26.9 11.5 26.9 26.8 0 15.4-11.4 26.8-26.9 26.8-15.5 0-27-11.4-27-26.8z"/>
</svg>