<svg version="1.2" xmlns="http://www.w3.org/2000/svg" viewBox="0 0 512 512" width="512" height="512">
	<title>Nowy projekt</title>
	<style>
		.s0 { fill: none;stroke: #000000;stroke-miterlimit:100;stroke-width: 15 } 
		.s1 { fill: #000000 } 
	</style>
	<path id="Kształt 1" class="s0" d="m256 512c-141.6 0-256-114.4-256-256 0-141.6 114.4-256 256-256 141.6 0 256 114.4 256 256 0 141.6-114.4 256-256 256z"/>
	<path id="Kształt 2" class="s1" d=""/>
	<path id="9" class="s1" aria-label="9"  d="m182.8 221c0 40.4 30.9 68.6 64.1 68.6 6.9 0 13.6-1.7 18.4-4.7l-59.3 70.1h45l51.8-62.6c19.2-23.2 29.1-46.8 29.1-68.9 0-39.5-30.5-70.6-76.5-70.6-45.3 0-72.6 30.1-72.6 68.1zm37.3-0.6c0-21.1 15.8-36.5 36.9-36.5 21.2 0 36.4 15.3 36.4 36.5 0 20.7-16 37.2-36.4 37.2-20.9 0-36.9-16-36.9-37.2z"/>
</svg>