<svg version="1.2" xmlns="http://www.w3.org/2000/svg" viewBox="0 0 512 512" width="512" height="512">
	<title>Nowy projekt</title>
	<style>
		.s0 { fill: none;stroke: #000000;stroke-miterlimit:100;stroke-width: 5.1 } 
		.s1 { fill: #000000 } 
	</style>
	<path id="Kształt 1" class="s0" d="m122 200h267c5.5 0 10 4.5 10 10v91c0 5.5-4.5 10-10 10h-267c-5.5 0-10-4.5-10-10v-91c0-5.5 4.5-10 10-10z"/>
	<path id="Ad" class="s1" aria-label="Ad"  d="m205.1 287h12.1l5.3-14.2h23.9l5.3 14.2h12.1l-24.2-60.2h-10.3zm21.3-24.1l8.1-20.9 8 20.9zm56.7 25.3c5.3 0 9.9-2.3 13.2-6.4v5.2h10.7v-62.7h-10.7v30.5c-3.3-4.1-7.9-6.3-13.2-6.3-10.8 0-18.6 8.6-18.6 19.8 0 11.2 7.8 19.9 18.6 19.9zm-7.4-19.9c0-6.2 4.4-10.7 10.5-10.7 6 0 10.4 4.5 10.4 10.7 0 6.3-4.4 10.8-10.4 10.8-6.1 0-10.5-4.5-10.5-10.8z"/>
</svg>