<svg version="1.2" xmlns="http://www.w3.org/2000/svg" viewBox="0 0 512 512" width="512" height="512">
	<title>Nowy projekt</title>
	<style>
		.s0 { fill: #000000 } 
	</style>
	<path id="ABC" class="s0" aria-label="ABC"  d="m66 328h29.2l12.8-34.2h57.5l12.8 34.2h29.2l-58.3-145h-24.9zm51.3-57.9l19.4-50.5 19.4 50.5zm150.1 57.9c28.8 0 46.8-15.1 46.8-40.5 0-20.1-11.3-32.8-31.8-36 12.5-6.1 18.9-17 18.9-31.9 0-24.2-16.7-36.5-44.6-36.5h-40.6v144.9zm-9.2-62.2c17.8 0 27.6 7.5 27.6 21 0 13.3-9.4 20.3-27.6 20.3h-15.1v-41.3zm-7.7-61.7c16.3 0 24.7 6.4 24.7 19 0 12.4-8.7 19.2-24.7 19.2h-7.4v-38.2zm148.5 126.8c17.8 0 34.6-5.6 46.1-13.8l-13.1-22.2c-8.1 6-19.5 9.3-31.3 9.3-30.5 0-49.8-21-49.8-48.5 0-27.5 19.3-48.6 49.8-48.6 11.8 0 23.2 3.3 31.3 9.3l13.1-22.1c-11.5-8.3-28.3-13.8-46.1-13.8-44.7 0-77.4 33.2-77.4 75.2 0 42 32.7 75.2 77.4 75.2z"/>
</svg>