<svg version="1.2" xmlns="http://www.w3.org/2000/svg" viewBox="0 0 512 512" width="512" height="512">
	<title>Nowy projekt</title>
	<style>
		.s0 { fill: #000000 } 
	</style>
	<path id="abc" class="s0" aria-label="abc"  d="m141.2 330.8c12.9 0 23.9-5.4 31.9-15.4v12.6h25.7v-90h-25.7v12.6c-8-9.9-19-15.4-31.9-15.4-26 0-44.6 20.7-44.6 47.7 0 27.1 18.6 47.9 44.6 47.9zm-17.6-47.8c0-15 10.6-25.9 25.1-25.9 14.6 0 25.1 10.8 25.1 25.9 0 15-10.5 25.9-25.1 25.9-14.5 0-25.1-10.9-25.1-25.9zm100.1-106.1v151.1h25.6v-12.5c7.9 9.9 19 15.3 31.9 15.3 26 0 44.6-20.8 44.6-47.9 0-27-18.6-47.7-44.6-47.7-12.9 0-24 5.5-31.9 15.3v-73.6zm50.1 80.2c14.5 0 25.1 10.8 25.1 25.9 0 15.1-10.6 25.9-25.1 25.9-14.6 0-25.1-10.8-25.1-25.9 0-15.1 10.5-25.9 25.1-25.9zm113.7 73.7c12 0 23.1-3.8 29.8-8.9l-9.6-16.8c-4.3 3-10.1 4.7-16.4 4.7-16.1 0-26.9-11.8-26.9-26.8 0-14.9 10.8-26.8 26.9-26.8 6.3 0 12.1 1.7 16.4 4.8l9.6-16.8c-6.7-5.2-17.8-9-29.8-9-28.4 0-50.1 20.9-50.1 47.8 0 26.9 21.7 47.8 50.1 47.8z"/>
</svg>