<svg version="1.2" xmlns="http://www.w3.org/2000/svg" viewBox="0 0 512 512" width="512" height="512">
	<title>Nowy projekt</title>
	<style>
		.s0 { fill: none;stroke: #000000;stroke-miterlimit:100;stroke-width: 5.1 } 
	</style>
	<path id="Kształt 1" class="s0" d="m126 277.1h53.8c5.5 0 10 4.5 10 10v53.8c0 5.6-4.5 10-10 10h-53.8c-5.5 0-10-4.4-10-10v-53.8c0-5.5 4.5-10 10-10z"/>
	<path id="Kształt 2" class="s0" d="m225.3 206.3h53.8c5.5 0 10 4.5 10 10v126.3c0 5.5-4.5 10-10 10h-53.8c-5.5 0-10-4.5-10-10v-126.3c0-5.5 4.5-10 10-10z"/>
	<path id="Kształt 3" class="s0" d="m320.6 154h65.9c5.5 0 10 4.5 10 10v182.6c0 5.6-4.5 10-10 10h-65.9c-5.5 0-10-4.4-10-10v-182.6c0-5.5 4.5-10 10-10z"/>
</svg>