<svg version="1.2" xmlns="http://www.w3.org/2000/svg" viewBox="0 0 512 512" width="512" height="512">
	<title>Nowy projekt</title>
	<style>
		.s0 { fill: none;stroke: #000000;stroke-miterlimit:100;stroke-width: 3.3 } 
		.s1 { fill: #000000;stroke: #000000;stroke-miterlimit:100;stroke-width: 3.3 } 
	</style>
	<path id="Kształt 1" class="s0" d="m98 206h298.7c5.5 0 10 4.5 10 10v80.1c0 5.5-4.5 10-10 10h-298.7c-5.5 0-10-4.5-10-10v-80.1c0-5.5 4.5-10 10-10z"/>
	<path id="Kształt 2" class="s1" d="m409.7 238.3h11c1.6 0 3 1.4 3 3v31c0 1.6-1.4 3-3 3h-11c-1.6 0-3-1.4-3-3v-31c0-1.6 1.4-3 3-3z"/>
</svg>