<svg version="1.2" xmlns="http://www.w3.org/2000/svg" viewBox="0 0 512 512" width="512" height="512">
	<title>Nowy projekt</title>
	<style>
		.s0 { fill: none;stroke: #000000;stroke-miterlimit:100;stroke-width: 5.1 } 
	</style>
	<path id="Kształt 1" class="s0" d="m172.5 96h167c5.5 0 10 4.5 10 10v299c0 5.5-4.5 10-10 10h-167c-5.5 0-10-4.5-10-10v-299c0-5.5 4.5-10 10-10z"/>
	<path id="Kształt 2" class="s0" d="m182 134h148c5.5 0 10 4.5 10 10v28c0 5.5-4.5 10-10 10h-148c-5.5 0-10-4.5-10-10v-28c0-5.5 4.5-10 10-10z"/>
	<path id="Kształt 3" class="s0" d="m186 210h17c5.5 0 10 4.5 10 10v17c0 5.5-4.5 10-10 10h-17c-5.5 0-10-4.5-10-10v-17c0-5.5 4.5-10 10-10z"/>
	<path id="Kształt 3 copy" class="s0" d="m247 211h17c5.5 0 10 4.5 10 10v17c0 5.5-4.5 10-10 10h-17c-5.5 0-10-4.5-10-10v-17c0-5.5 4.5-10 10-10z"/>
	<path id="Kształt 3 copy 2" class="s0" d="m309 212h17c5.5 0 10 4.5 10 10v17c0 5.5-4.5 10-10 10h-17c-5.5 0-10-4.5-10-10v-17c0-5.5 4.5-10 10-10z"/>
	<path id="Kształt 3 copy 3" class="s0" d="m186 272h17c5.5 0 10 4.5 10 10v17c0 5.5-4.5 10-10 10h-17c-5.5 0-10-4.5-10-10v-17c0-5.5 4.5-10 10-10z"/>
	<path id="Kształt 3 copy 4" class="s0" d="m247 273h17c5.5 0 10 4.5 10 10v17c0 5.5-4.5 10-10 10h-17c-5.5 0-10-4.5-10-10v-17c0-5.5 4.5-10 10-10z"/>
	<path id="Kształt 3 copy 5" class="s0" d="m186 336h17c5.5 0 10 4.5 10 10v17c0 5.5-4.5 10-10 10h-17c-5.5 0-10-4.5-10-10v-17c0-5.5 4.5-10 10-10z"/>
	<path id="Kształt 3 copy 6" class="s0" d="m247 337h17c5.5 0 10 4.5 10 10v17c0 5.5-4.5 10-10 10h-17c-5.5 0-10-4.5-10-10v-17c0-5.5 4.5-10 10-10z"/>
	<path id="Kształt 4" class="s0" d="m310 276h16c5.5 0 10 4.5 10 10v81c0 5.5-4.5 10-10 10h-16c-5.5 0-10-4.5-10-10v-81c0-5.5 4.5-10 10-10z"/>
</svg>