<svg version="1.2" xmlns="http://www.w3.org/2000/svg" viewBox="0 0 512 512" width="512" height="512">
	<title>0-circled-svg</title>
	<style>
		.s0 { fill: none;stroke: #000000;stroke-miterlimit:100;stroke-width: 15 } 
		.s1 { fill: #000000 } 
	</style>
	<path id="Kształt 1" fill-rule="evenodd" class="s0" d="m256 512c-141.6 0-256-114.4-256-256 0-141.6 114.4-256 256-256 141.6 0 256 114.4 256 256 0 141.6-114.4 256-256 256z"/>
	<path id="Kształt 2" class="s1" d=""/>
	<path id="C" class="s1" aria-label="C"  d="m278 360.9c25 0 48.5-7.7 64.7-19.3l-18.4-31c-11.3 8.4-27.3 13-43.8 13-42.9 0-69.8-29.5-69.8-68 0-38.6 26.9-68.1 69.8-68.1 16.5 0 32.5 4.6 43.8 13l18.4-31c-16.2-11.6-39.7-19.3-64.7-19.3-62.7 0-108.5 46.5-108.5 105.4 0 58.8 45.8 105.3 108.5 105.3z"/>
</svg>