<svg version="1.2" xmlns="http://www.w3.org/2000/svg" viewBox="0 0 512 512" width="512" height="512">
	<title>Nowy projekt</title>
	<style>
		.s0 { fill: none;stroke: #000000;stroke-miterlimit:100;stroke-width: 5.1 } 
		.s1 { fill: #000000 } 
	</style>
	<path id="Kształt 1" class="s0" d="m107 97h297c5.5 0 10 4.5 10 10v297c0 5.5-4.5 10-10 10h-297c-5.5 0-10-4.5-10-10v-297c0-5.5 4.5-10 10-10z"/>
	<path id="Kształt 2" class="s1" d="m195 216c-12.7 0-23-10.3-23-23 0-12.7 10.3-23 23-23 12.7 0 23 10.3 23 23 0 12.7-10.3 23-23 23z"/>
	<path id="Kształt 2 copy" class="s1" d="m317 342c-12.7 0-23-10.3-23-23 0-12.7 10.3-23 23-23 12.7 0 23 10.3 23 23 0 12.7-10.3 23-23 23z"/>
	<path id="Kształt 2 copy 2" class="s1" d="m256 279c-12.7 0-23-10.3-23-23 0-12.7 10.3-23 23-23 12.7 0 23 10.3 23 23 0 12.7-10.3 23-23 23z"/>
</svg>