<svg version="1.2" xmlns="http://www.w3.org/2000/svg" viewBox="0 0 512 512" width="512" height="512">
	<title>Nowy projekt</title>
	<style>
		.s0 { fill: none;stroke: #000000;stroke-miterlimit:100;stroke-width: 5.1 } 
		.s1 { fill: #000000;stroke: #000000;stroke-miterlimit:100;stroke-width: 5.1 } 
		.s2 { fill: #ffffff } 
	</style>
	<path id="Kształt 1" class="s0" d="m165 73h181.9c5.5 0 10 4.5 10 10v345.6c0 5.6-4.5 10-10 10h-181.9c-5.5 0-10-4.4-10-10v-345.6c0-5.5 4.5-10 10-10z"/>
	<path id="Kształt 2" class="s0" d="m255.9 424.7c-5.4 0-9.7-4.4-9.7-9.8 0-5.4 4.3-9.8 9.7-9.8 5.4 0 9.8 4.4 9.8 9.8 0 5.4-4.4 9.8-9.8 9.8z"/>
	<path id="Kształt 3" class="s1" d="m230.1 73h61c5.5 0 10 4.5 10 10v0.5c0 5.5-4.5 10-10 10h-61c-5.5 0-10-4.5-10-10v-0.5c0-5.5 4.5-10 10-10z"/>
	<path id="Kształt 4" class="s2" d="m242.9 90.7c-3.8 0-7-3.1-7-7 0-3.9 3.2-7 7-7 3.9 0 7 3.1 7 7 0 3.9-3.1 7-7 7z"/>
</svg>