<svg version="1.2" xmlns="http://www.w3.org/2000/svg" viewBox="0 0 512 512" width="512" height="512">
	<title>Nowy projekt</title>
	<style>
		.s0 { fill: none;stroke: #000000;stroke-miterlimit:100;stroke-width: 5.1 } 
		.s1 { fill: #000000;stroke: #000000;stroke-miterlimit:100;stroke-width: 5.1 } 
		.s2 { fill: #ffffff } 
	</style>
	<path id="Kształt 1" class="s0" d="m73.1 346.8v-181.9c0-5.5 4.5-10 10-10h345.7c5.5 0 10 4.5 10 10v181.9c0 5.5-4.5 10-10 10h-345.7c-5.5 0-10-4.5-10-10z"/>
	<path id="Kształt 2" class="s0" d="m424.8 255.8c0 5.4-4.4 9.8-9.8 9.8-5.4 0-9.7-4.4-9.7-9.8 0-5.4 4.3-9.7 9.7-9.7 5.4 0 9.8 4.3 9.8 9.7z"/>
	<path id="Kształt 3" class="s1" d="m73.1 281.6v-60.9c0-5.5 4.5-10 10-10h0.5c5.5 0 10 4.5 10 10v60.9c0 5.6-4.5 10-10 10h-0.5c-5.5 0-10-4.4-10-10z"/>
	<path id="Kształt 4" class="s2" d="m90.8 268.8c0 3.9-3.1 7-7 7-3.8 0-7-3.1-7-7 0-3.8 3.2-6.9 7-6.9 3.9 0 7 3.1 7 6.9z"/>
</svg>