<svg version="1.2" xmlns="http://www.w3.org/2000/svg" viewBox="0 0 512 512" width="512" height="512">
	<title>0-circled-svg</title>
	<style>
		.s0 { fill: none;stroke: #000000;stroke-miterlimit:100;stroke-width: 15 } 
		.s1 { fill: #000000 } 
	</style>
	<path id="Kształt 1" fill-rule="evenodd" class="s0" d="m256 512c-141.6 0-256-114.4-256-256 0-141.6 114.4-256 256-256 141.6 0 256 114.4 256 256 0 141.6-114.4 256-256 256z"/>
	<path id="Kształt 2" class="s1" d=""/>
	<path id="R" class="s1" aria-label="R"  d="m177.3 153.9v203.1h37.9v-77.3h10.8l59.2 77.3h48.1l-67.3-82.6c28.7-6.4 47-27.1 47-59 0-39.4-28.1-61.5-68-61.5zm38 30.2h18.2c22.6 0 39.7 9.3 39.7 31.3 0 21.9-17.1 31.4-39.7 31.4h-18.2z"/>
</svg>