<svg version="1.2" xmlns="http://www.w3.org/2000/svg" viewBox="0 0 512 512" width="512" height="512">
	<title>Nowy projekt</title>
	<style>
		.s0 { fill: none;stroke: #000000;stroke-miterlimit:100;stroke-width: 5.1 } 
	</style>
	<path id="Kształt 1" class="s0" d="m203.9 275.7c-10.4 0-18.9-8.5-18.9-18.9 0-10.5 8.5-19 18.9-19 10.5 0 18.9 8.5 18.9 19 0 10.4-8.4 18.9-18.9 18.9z"/>
	<path id="Kształt 1 copy" class="s0" d="m306.6 339.4c-10.5 0-18.9-8.4-18.9-18.9 0-10.4 8.4-18.9 18.9-18.9 10.4 0 18.9 8.5 18.9 18.9 0 10.5-8.5 18.9-18.9 18.9z"/>
	<path id="Kształt 1 copy 2" class="s0" d="m308.7 210.8c-10.4 0-18.9-8.4-18.9-18.9 0-10.4 8.5-18.9 18.9-18.9 10.5 0 19 8.5 19 18.9 0 10.5-8.5 18.9-19 18.9z"/>
	<path id="Kształt 2" class="s0" d="m291.4 307.8l-2.7 4.5-69.4-41 2.7-4.5z"/>
	<path id="Kształt 3" class="s0" d="m217.6 244.5l-2.8-4.7 74.8-43.3 2.7 4.7z"/>
</svg>