<svg version="1.2" xmlns="http://www.w3.org/2000/svg" viewBox="0 0 512 512" width="512" height="512">
	<title>Nowy projekt</title>
	<style>
		.s0 { fill: none;stroke: #000000;stroke-miterlimit:100;stroke-width: 5.1 } 
		.s1 { fill: #000000 } 
	</style>
	<path id="Kształt 1" class="s0" d="m111 91h290c11 0 20 9 20 20v290c0 11-9 20-20 20h-290c-11 0-20-9-20-20v-290c0-11 9-20 20-20z"/>
	<path id="!" class="s1" aria-label="!"  d="m244 171.9l3.7 114.6h20l3.7-114.6zm-4.2 146.2c0 9.9 7.9 17.9 17.9 17.9 9.9 0 17.9-8 17.9-17.9 0-9.9-8-17.9-17.9-17.9-10 0-17.9 8-17.9 17.9z"/>
</svg>