<svg version="1.2" xmlns="http://www.w3.org/2000/svg" viewBox="0 0 512 512" width="512" height="512">
	<title>Nowy projekt</title>
	<style>
		.s0 { fill: #000000;stroke: #000000;stroke-miterlimit:100;stroke-width: 5.1 } 
		.s1 { fill: #ffffff;stroke: #000000;stroke-miterlimit:100;stroke-width: 5.1 } 
		.s2 { fill: none;stroke: #000000;stroke-miterlimit:100;stroke-width: 5.1 } 
	</style>
	<path id="Kształt 2" class="s0" d="m140 272h231c21.5 0 39 17.5 39 39 0 21.5-17.5 39-39 39h-231c-21.5 0-39-17.5-39-39 0-21.5 17.5-39 39-39z"/>
	<path id="Kształt 3" class="s1" d="m368.3 348c-20.4 0-36.8-16.4-36.8-36.8 0-20.3 16.4-36.7 36.8-36.7 20.3 0 36.7 16.4 36.7 36.8 0 20.3-16.4 36.7-36.7 36.7z"/>
	<path id="Kształt 1" class="s2" d=""/>
	<path id="Kształt 2" class="s2" d="m141 167h231c21.5 0 39 17.5 39 39 0 21.5-17.5 39-39 39h-231c-21.5 0-39-17.5-39-39 0-21.5 17.5-39 39-39z"/>
	<path id="Kształt 3" class="s2" d="m142.3 241c-19.8 0-35.8-16-35.8-35.8 0-19.7 16-35.7 35.8-35.7 19.7 0 35.7 16 35.7 35.8 0 19.7-16 35.7-35.7 35.7z"/>
</svg>