<svg version="1.2" xmlns="http://www.w3.org/2000/svg" viewBox="0 0 512 512" width="512" height="512">
	<title>Nowy projekt</title>
	<style>
		.s0 { fill: #000000;stroke: #000000;stroke-miterlimit:100;stroke-width: 5.1 } 
		.s1 { fill: none;stroke: #000000;stroke-miterlimit:100;stroke-width: 5.1 } 
		.s2 { fill: #ffffff } 
		.s3 { fill: #000000 } 
	</style>
	<path id="Kształt 1" class="s0" d="m113 97h158c5.5 0 10 4.5 10 10v158c0 5.5-4.5 10-10 10h-158c-5.5 0-10-4.5-10-10v-158c0-5.5 4.5-10 10-10z"/>
	<path id="Kształt 1 copy" class="s1" d="m241 237h158c5.5 0 10 4.5 10 10v158c0 5.5-4.5 10-10 10h-158c-5.5 0-10-4.5-10-10v-158c0-5.5 4.5-10 10-10z"/>
	<path id="A" class="s2" aria-label="A"  d="m148.2 229h18.1l8-21.2h35.6l8 21.2h18.1l-36.1-89.9h-15.5zm31.8-36l12-31.3 12.1 31.3z"/>
	<path id="あ" class="s3" aria-label="あ"  d="m329.6 386.6l-4.4-11.8q42.7-2.7 42.7-27.1 0-18.3-23.2-24.3-10.3 29.7-24.9 43.8-14.6 14-27 14-8.6 0-15.1-6.4-6-7.1-6-17.3 0-28.1 34.1-41.6l0.5-18.4h-29.2v-11.9l17.9 1.1 12.4-0.5 1.6-15.7 11.9 0.5-1.6 14.6 50.8-1.1 0.5 11.4-52.4 1.6-0.5 14.6 14-1.6 4.9 0.5 1.1-6.5 11.8 2.7-1.6 5.4q33 8.1 33 35.7 0 30.8-51.3 38.3zm3.7-64.8l-16.2 2.2v14l-1.6 17.8q10.8-12.9 17.8-34zm-25.9 41.6q-1.6-9.2-1.6-35.6-22.7 11.3-22.7 29.1 0 4.9 3.2 9.2 3.8 3.8 7.6 3.8 5.9 0 13.5-6.5z"/>
</svg>