<svg version="1.2" xmlns="http://www.w3.org/2000/svg" viewBox="0 0 512 512" width="512" height="512">
	<title>Nowy projekt</title>
	<style>
		.s0 { fill: none;stroke: #000000;stroke-miterlimit:100;stroke-width: 5.1 } 
		.s1 { fill: #000000;stroke: #000000;stroke-miterlimit:100;stroke-width: 5.1 } 
		.s2 { fill: #ffffff } 
	</style>
	<path id="Kształt 1" class="s0" d="m232 187.1h48c5.5 0 10 4.5 10 10v143c0 5.5-4.5 10-10 10h-48c-5.5 0-10-4.5-10-10v-143c0-5.5 4.5-10 10-10z"/>
	<path id="Kształt 2" class="s1" d="m254.9 160.9h3c5.5 0 10 4.5 10 10v3.7c0 5.6-4.5 10-10 10h-3c-5.5 0-10-4.4-10-10v-3.7c0-5.5 4.5-10 10-10z"/>
	<path id="Kształt 3" class="s2" d=""/>
	<path id="Kształt 4" class="s2" d=""/>
	<path id="Kształt 5" class="s2" d="m249.4 165c1.6 0 2.9 1.3 2.9 2.8 0 1.6-1.3 2.9-2.9 2.9-1.5 0-2.8-1.3-2.8-2.9 0-1.5 1.3-2.8 2.8-2.8z"/>
	<path id="Kształt 5 copy" class="s2" d="m263.4 165c1.6 0 2.8 1.3 2.8 2.8 0 1.6-1.2 2.9-2.8 2.9-1.6 0-2.9-1.3-2.9-2.9 0-1.5 1.3-2.8 2.9-2.8z"/>
</svg>