<svg version="1.2" xmlns="http://www.w3.org/2000/svg" viewBox="0 0 512 512" width="512" height="512">
	<title>Nowy projekt</title>
	<style>
		.s0 { fill: none;stroke: #000000;stroke-miterlimit:100;stroke-width: 5.1 } 
		.s1 { fill: #000000 } 
	</style>
	<path id="Kształt 1" class="s0" d="m121 129h269c5.5 0 10 4.5 10 10v233c0 5.5-4.5 10-10 10h-269c-5.5 0-10-4.5-10-10v-233c0-5.5 4.5-10 10-10z"/>
	<path id="Kształt 3" class="s0" d="m140.5 169c-6.4 0-11.5-5.1-11.5-11.5 0-6.4 5.1-11.5 11.5-11.5 6.4 0 11.5 5.1 11.5 11.5 0 6.4-5.1 11.5-11.5 11.5z"/>
	<path id="Kształt 3 copy" class="s0" d="m180.5 169c-6.4 0-11.5-5.1-11.5-11.5 0-6.4 5.1-11.5 11.5-11.5 6.4 0 11.5 5.1 11.5 11.5 0 6.4-5.1 11.5-11.5 11.5z"/>
	<path id="Kształt 3 copy 2" class="s0" d="m220.5 169c-6.4 0-11.5-5.1-11.5-11.5 0-6.4 5.1-11.5 11.5-11.5 6.4 0 11.5 5.1 11.5 11.5 0 6.4-5.1 11.5-11.5 11.5z"/>
	<path id="Kształt 4" class="s1" d="m110 185.9v-5h292v5z"/>
</svg>