<svg width="24" height="24" viewBox="0 0 24 24" fill="currentColor" xmlns="http://www.w3.org/2000/svg">
  <path d="M12 15a3 3 0 100-6 3 3 0 000 6zm8.25-2.75a1 1 0 00.15-1.1l-1.25-2.25a1 1 0 00-.85-.5h-1.5a1 1 0 00-.8.4l-1.35 1.35a6.02 6.02 0 00-2.65-1.35L13.35 6.6a1 1 0 00-.85-.5H11a1 1 0 00-.8.4L9.35 8.7A6.02 6.02 0 007.5 10.05L6.1 8.5a1 1 0 00-.8-.4H4a1 1 0 00-.85.5l-1.25 2.25a1 1 0 00.15 1.1L5.9 13.5a6.02 6.02 0 000 2.65l-1.35 1.35a1 1 0 00-.4.8v1.5a1 1 0 00.5.85l2.25 1.25a1 1 0 001.1-.15L12 16.1l2.65 1.35a1 1 0 001.1-.15l2.25-1.25a1 1 0 00.5-.85v-1.5a1 1 0 00-.4-.8l-1.35-1.35a6.02 6.02 0 002.65-2.65z"/>
</svg>